<svg width="87" height="17" viewBox="0 0 87 17" fill="none" xmlns="http://www.w3.org/2000/svg">
<path d="M17.0947 14.6301V14.6166L17.092 2.48493H14.1521L12.8314 4.48587C12.5065 4.9794 11.8409 5.09742 11.3707 4.74336L9.21001 3.1233L8.8904 2.88726L8.81908 2.8363C7.63308 2.05041 6.19615 1.89752 4.87543 2.41251C3.55208 2.9275 2.58532 4.01916 2.22345 5.40856C2.09666 5.89404 2.03326 6.39293 2.03326 6.89719V13.1334C2.03326 13.9595 2.69098 14.6274 3.50454 14.6274C4.31809 14.6274 4.97581 13.9595 4.97581 13.1334V6.89719C4.97581 6.69603 4.99694 6.49218 5.0392 6.29637C5.13165 5.86454 5.52522 5.35759 5.932 5.20203C6.34935 5.04109 6.80103 5.08401 7.17875 5.32273L10.322 7.68577C11.4869 8.56017 13.0586 8.49848 14.1495 7.61067V14.6327H17.092L17.0947 14.6301Z" fill="white"/>
<path d="M24.5699 2.48459C21.2681 2.48459 18.5897 5.20437 18.5897 8.55715C18.5897 11.9099 21.2681 14.6297 24.5699 14.6297C27.8717 14.6297 30.5501 11.9099 30.5501 8.55715C30.5501 5.20437 27.8717 2.48459 24.5699 2.48459ZM24.5699 11.6417C22.8926 11.6417 21.5323 10.2604 21.5323 8.55715C21.5323 6.85394 22.8926 5.47259 24.5699 5.47259C26.2472 5.47259 27.6075 6.85394 27.6075 8.55715C27.6075 10.2604 26.2472 11.6417 24.5699 11.6417Z" fill="white"/>
<path d="M32.2485 2.49802C31.4006 2.49802 30.7138 3.1954 30.7138 4.05639V5.48602H33.8043V14.6431H36.7468V5.48602H38.2947C39.1452 5.48602 39.8373 4.78596 39.8373 3.9196V2.49802H32.2485Z" fill="white"/>
<path d="M66.6319 11.6417H62.0068V4.05369C62.0068 3.18733 61.3147 2.48459 60.4615 2.48459H59.0642V13.1357C59.0642 13.9618 59.7219 14.6297 60.5355 14.6297H68.1877V13.2215C68.1877 12.3498 67.4903 11.6417 66.6319 11.6417Z" fill="white"/>
<path d="M79.9631 5.47259V4.04028C79.9631 3.18197 79.2764 2.48459 78.4311 2.48459H69.688V3.9169C69.688 4.77521 70.3748 5.47259 71.22 5.47259H75.7923L69.688 11.6444V13.0499C69.688 13.9243 70.3853 14.6324 71.2464 14.6324H79.9631V13.2108C79.9631 12.3445 79.2711 11.6444 78.4205 11.6444H73.8588L79.9631 5.47259Z" fill="white"/>
<path d="M47.154 5.47259C48.0072 5.47259 48.6992 4.76985 48.6992 3.90349V2.48459H42.8749C42.0244 2.48459 41.335 3.18465 41.335 4.04833V13.0633C41.335 13.9297 42.027 14.6324 42.8802 14.6324H48.6992V13.1974C48.6992 12.3391 48.0151 11.6444 47.1699 11.6444H44.2775V10.0538H47.228C48.0415 10.0538 48.6992 9.38596 48.6992 8.55983C48.6992 7.73371 48.0415 7.06583 47.228 7.06583H44.2775V5.47527H47.154V5.47259Z" fill="white"/>
<path d="M55.913 5.47259C56.7662 5.47259 57.4582 4.76985 57.4582 3.90349V2.48459H51.6339C50.7833 2.48459 50.0939 3.18465 50.0939 4.04833V13.0633C50.0939 13.9297 50.786 14.6324 51.6392 14.6324H57.4582V13.1974C57.4582 12.3391 56.7741 11.6444 55.9288 11.6444H53.0365V10.0538H55.9869C56.8005 10.0538 57.4582 9.38596 57.4582 8.55983C57.4582 7.73371 56.8005 7.06583 55.9869 7.06583H53.0365V5.47527H55.913V5.47259Z" fill="white"/>
<path d="M81.4819 12.8675C81.3182 13.8814 82.1687 14.7477 83.1672 14.5814C83.772 14.4822 84.2607 13.986 84.3584 13.3717C84.5222 12.3579 83.6717 11.4915 82.6732 11.6578C82.0683 11.757 81.5797 12.2532 81.4819 12.8675Z" fill="#AC0054"/>
</svg>
